<svg xmlns="http://www.w3.org/2000/svg" viewBox="0 0 514.03 195.5"><defs><style>.cls-1{fill:#333d5c}.cls-2{fill:#939598}</style></defs><title>Artboard 1 copy 30</title><g id="Artwork"><path class="cls-1" d="M103.31 131.31c-2.06-6-5.25-13.9-9.38-23.67l-11.09-26.3h-51.1L21 107.46c-4.7 11.26-7.7 19-9 23.85H0c4.32-8.08 8.83-18.22 13.15-28.55L56.35.19h3l43.39 102.57c4.52 10.33 9.39 20.85 13.53 28.55zM57.29 19L35.13 73.26h44.33zM261 102.2c1.31 13.15 2.25 20.1 3.94 29.11h-12c0-6.38-.37-13.15-1.49-26.86l-6.85-78.91L199 133.38h-2.25L151.61 25.74l-8.83 76.07c-1.31 12.22-2.25 21.42-2.44 29.5h-11.09c.95-5.83 3.2-20.28 4.89-34L146.35 0H149l49.41 115L248.17 0h3.2zm121.33 29.11c-2.08-6-5.27-13.9-9.41-23.67l-11.07-26.3h-51.1L300 107.46c-4.69 11.26-7.69 19-9 23.85h-12c4.32-8.08 8.83-18.22 13.14-28.55L335.36.19h3l43.4 102.57c4.51 10.33 9.39 20.85 13.52 28.55zM336.3 19l-22.17 54.26h44.34zM454.66 2.63c13 0 26.3-.19 32.12-.56v9.39c-5.82-.38-19.16-.75-32.12-.75h-15.22c-.19 6.94-.19 16.53-.19 24.23v62.74c0 12.78 0 27.8.56 33.63h-11.08c.38-5.83.56-20.85.56-33.63V34.94c0-7.7-.18-17.29-.56-24.23h-15.21c-13 0-25.92.37-31.75.75V2.07c5.83.37 18.78.56 31.75.56zm58.62 95.05c0 12.78.37 27.8.75 33.63h-11.27c.37-5.83.76-20.85.76-33.63V36.26c0-12.77-.39-28-.76-33.63H514c-.38 5.63-.75 20.86-.75 33.63z"/><path class="cls-2" d="M72.5 186.64H54l-3.79 8.72H46l15.28-34.07h4l15.23 34.07h-4.16zM71 183l-7.74-17.51L55.57 183zm51.86 9c6.47 0 10.36-3.89 10.36-10.61v-20.1h3.89v20.05c0 8.91-5.35 14.16-14.25 14.16s-14.36-5.25-14.36-14.16v-20.05h3.9v20.05c0 6.72 3.99 10.66 10.46 10.66zm62.71-27.25a13.55 13.55 0 1 0 0 27.1 14.79 14.79 0 0 0 10.07-4.09l2.39 2.58a18.69 18.69 0 0 1-12.65 5.16 17.29 17.29 0 0 1-17.62-17.22c0-9.54 7.88-17.08 17.76-17.08a18.4 18.4 0 0 1 12.46 5l-2.34 2.8a14.45 14.45 0 0 0-10.07-4.25zm65.29-3.46v3.6h-11.14v30.47h-3.89v-30.47h-11.1v-3.6zm33.86 0v34.07h-3.89v-34.07zm67.1 17.03c0 9.59-7.88 17.18-17.81 17.18s-17.86-7.59-17.86-17.18S324 161.2 334 161.2s17.82 7.54 17.82 17.12zm-31.73 0a13.87 13.87 0 0 0 27.74 0 13.87 13.87 0 0 0-27.74 0zm67.19-17.03L407.72 189v-27.71h3.84v34.07h-4l-20.43-27.64v27.64h-3.9v-34.07zm68.85 3.65c-4.38 0-7.25 1.76-7.25 4.67 0 8.86 19.17 4.24 19.12 16.6 0 5.64-5 9.29-12.31 9.29a19.46 19.46 0 0 1-13-5.2l1.75-3.36a17.09 17.09 0 0 0 11.34 4.77c4.91 0 8-2 8-5.31 0-9.1-19.13-4.28-19.13-16.49 0-5.36 4.72-8.76 11.78-8.76a20.12 20.12 0 0 1 10.8 3.16l-1.65 3.46a17.93 17.93 0 0 0-9.45-2.83z"/></g></svg>